<?xml version="1.0" encoding="iso-8859-1"?>
<!-- Generator: Adobe Illustrator 19.0.0, SVG Export Plug-In . SVG Version: 6.00 Build 0)  -->
<svg version="1.1" id="Layer_1" xmlns="http://www.w3.org/2000/svg" xmlns:xlink="http://www.w3.org/1999/xlink" x="0px" y="0px"
	 viewBox="0 0 512 512" style="enable-background:new 0 0 512 512;" xml:space="preserve">
<g>
	<g>
		<path d="M489.739,267.13h-83.478V16.696c0-9.22-7.475-16.696-16.696-16.696H22.261C13.04,0,5.565,7.475,5.565,16.696v428.522
			C5.565,482.041,35.524,512,72.348,512h367.304c36.824,0,66.783-29.959,66.783-66.783V283.826
			C506.435,274.606,498.96,267.13,489.739,267.13z M72.348,478.609c-18.412,0-33.391-14.979-33.391-33.391V33.391H372.87
			c0,6.426,0,404.746,0,411.826c0,12.16,3.282,23.56,8.984,33.391H72.348z M473.043,445.217c0,18.412-14.979,33.391-33.391,33.391
			c-18.412,0-33.391-14.979-33.391-33.391c0-11.433,0-138.201,0-144.696h66.783V445.217z"/>
	</g>
</g>
<g>
	<g>
		<path d="M189.217,66.783H89.044c-9.22,0-16.696,7.475-16.696,16.696v133.565c0,9.22,7.475,16.696,16.696,16.696h100.174
			c9.22,0,16.696-7.475,16.696-16.696V83.478C205.913,74.258,198.438,66.783,189.217,66.783z M172.522,200.348h-66.783V100.174
			h66.783V200.348z"/>
	</g>
</g>
<g>
	<g>
		<path d="M322.783,278.261H89.044c-9.22,0-16.696,7.475-16.696,16.696s7.475,16.696,16.696,16.696h233.739
			c9.22,0,16.696-7.475,16.696-16.696S332.003,278.261,322.783,278.261z"/>
	</g>
</g>
<g>
	<g>
		<path d="M189.217,345.043H89.044c-9.22,0-16.696,7.475-16.696,16.696s7.475,16.696,16.696,16.696h100.174
			c9.22,0,16.696-7.475,16.696-16.696S198.438,345.043,189.217,345.043z"/>
	</g>
</g>
<g>
	<g>
		<path d="M189.217,411.826H89.044c-9.22,0-16.696,7.475-16.696,16.696s7.475,16.696,16.696,16.696h100.174
			c9.22,0,16.696-7.475,16.696-16.696S198.438,411.826,189.217,411.826z"/>
	</g>
</g>
<g>
	<g>
		<path d="M322.783,345.043H256c-9.22,0-16.696,7.475-16.696,16.696s7.475,16.696,16.696,16.696h66.783
			c9.22,0,16.696-7.475,16.696-16.696S332.003,345.043,322.783,345.043z"/>
	</g>
</g>
<g>
	<g>
		<path d="M322.783,411.826H256c-9.22,0-16.696,7.475-16.696,16.696s7.475,16.696,16.696,16.696h66.783
			c9.22,0,16.696-7.475,16.696-16.696S332.003,411.826,322.783,411.826z"/>
	</g>
</g>
<g>
	<g>
		<path d="M322.783,66.783H256c-9.22,0-16.696,7.475-16.696,16.696s7.475,16.696,16.696,16.696h66.783
			c9.22,0,16.696-7.475,16.696-16.696S332.003,66.783,322.783,66.783z"/>
	</g>
</g>
<g>
	<g>
		<path d="M322.783,133.565H256c-9.22,0-16.696,7.475-16.696,16.696s7.475,16.696,16.696,16.696h66.783
			c9.22,0,16.696-7.475,16.696-16.696S332.003,133.565,322.783,133.565z"/>
	</g>
</g>
<g>
	<g>
		<path d="M322.783,200.348H256c-9.22,0-16.696,7.475-16.696,16.696c0,9.22,7.475,16.696,16.696,16.696h66.783
			c9.22,0,16.696-7.475,16.696-16.696C339.478,207.823,332.003,200.348,322.783,200.348z"/>
	</g>
</g>
<g>
</g>
<g>
</g>
<g>
</g>
<g>
</g>
<g>
</g>
<g>
</g>
<g>
</g>
<g>
</g>
<g>
</g>
<g>
</g>
<g>
</g>
<g>
</g>
<g>
</g>
<g>
</g>
<g>
</g>
</svg>
